<?xml version="1.0" encoding="utf-8"?>
<!-- Generator: Adobe Illustrator 24.1.2, SVG Export Plug-In . SVG Version: 6.00 Build 0)  -->
<svg version="1.1" id="Layer_1" xmlns="http://www.w3.org/2000/svg" xmlns:xlink="http://www.w3.org/1999/xlink" x="0px" y="0px"
	 viewBox="0 0 300 300" style="enable-background:new 0 0 300 300;" xml:space="preserve">
<style type="text/css">
	.st0{enable-background:new    ;}
	.st1{fill:#34B781;}
	.st2{fill-rule:evenodd;clip-rule:evenodd;fill:#34B781;}
</style>
<g>
	<g class="st0">
		<path class="st1" d="M51.9,214.2c0,4.1-3.1,7-7.3,7H31.2v-25.9h12.5c3.9,0,6.9,2.8,6.9,6.6c0,2.4-1.2,4.5-2.9,5.5
			C50.2,208.5,51.9,211.2,51.9,214.2z M36.8,200.6v4.9h5.4c1.3,0,2.4-1,2.4-2.4c0-1.4-1-2.4-2.4-2.4H36.8z M45.9,213.2
			c0-1.6-1.2-2.8-2.8-2.8h-6.3v5.6h6.3C44.7,216,45.9,214.8,45.9,213.2z"/>
		<path class="st1" d="M66.2,201.8v5.6h-0.8c-3.3,0-5.2,1.9-5.2,4.9v8.9h-5.5v-19.1h5.5v2.2c1.4-1.6,3.1-2.5,5.2-2.5H66.2z"/>
		<path class="st1" d="M68.2,196.3c0-1.9,1.5-3.3,3.4-3.3c2,0,3.4,1.4,3.4,3.3c0,2-1.5,3.4-3.4,3.4
			C69.7,199.7,68.2,198.3,68.2,196.3z M68.8,202.1h5.5v19.1h-5.5V202.1z"/>
		<path class="st1" d="M97.7,213.5H83.4c0.7,2.1,2.5,3.5,4.9,3.5c2.2,0,3.9-1,4.8-2.1l3.7,3.2c-2,2.3-5.1,3.7-8.6,3.7
			c-6.1,0-10.7-4.4-10.7-10.1c0-5.6,4.4-9.9,10.2-9.9c5.7,0,10.1,4.3,10.1,10.1C97.8,212.3,97.8,213,97.7,213.5z M83.4,209.9H92
			c-0.6-2.1-2.3-3.5-4.3-3.5S84,207.8,83.4,209.9z"/>
		<path class="st1" d="M108.8,193.8c1.4,0,2.6,0.3,3.6,0.8v4.8c-0.7-0.5-1.5-0.7-2.4-0.7c-1.7,0-2.5,0.8-2.5,2.3v1.1h4.5v5h-4.5
			v14.1H102v-14.1h-2.9v-5h2.9v-1.4C102,196.7,104.1,193.8,108.8,193.8z M114.6,196.3c0-1.9,1.5-3.3,3.4-3.3c2,0,3.4,1.4,3.4,3.3
			c0,2-1.5,3.4-3.4,3.4C116,199.7,114.6,198.3,114.6,196.3z M115.2,202.1h5.5v19.1h-5.5V202.1z"/>
		<path class="st1" d="M143.6,209v12.3h-5.5v-10.5c0-2.3-1.5-3.8-3.7-3.8c-2.3,0-3.9,1.5-3.9,3.9v10.4H125v-19.1h5.5v1.9
			c1.5-1.5,3.5-2.4,5.8-2.4C140.7,201.7,143.6,204.6,143.6,209z"/>
		<path class="st1" d="M167.1,226.9l-5.6,1.5c-0.2-1.2-1.2-2.1-2.7-2.1h-6c-3.7,0-6.2-2.1-6.2-5.3c0-2,1-4,2.6-5
			c-1.6-1.5-2.5-3.6-2.5-6c0-4.8,3.9-8.4,9-8.4c1.5,0,2.8,0.3,4,0.8c0.6-2.1,2.5-3.4,5.1-3.4h1.6v5.1h-1.4c-0.9,0-1.6,0.5-1.8,1.2
			c0.9,1.4,1.5,3,1.5,4.8c0,4.8-3.9,8.4-9.1,8.4c-1,0-1.9-0.1-2.8-0.4c-0.6,0.4-0.9,0.9-0.9,1.5c0,0.9,0.7,1.4,1.7,1.4h6
			C163.7,221.1,166.4,223.2,167.1,226.9z M152.4,210.1c0,1.9,1.5,3.3,3.4,3.3s3.5-1.4,3.5-3.3c0-1.9-1.5-3.3-3.5-3.3
			C153.8,206.9,152.4,208.2,152.4,210.1z"/>
		<path class="st1" d="M191.6,195.4v25.9h-5.9l-10.7-15.8v15.8h-5.8v-25.9h5.9l10.8,15.8v-15.8H191.6z"/>
		<path class="st1" d="M195,211.7c0-5.7,4.4-10,10.3-10s10.3,4.3,10.3,10c0,5.7-4.4,10-10.3,10S195,217.4,195,211.7z M210,211.7
			c0-2.7-2-4.7-4.7-4.7s-4.7,2-4.7,4.7c0,2.7,2,4.7,4.7,4.7S210,214.4,210,211.7z"/>
		<path class="st1" d="M225.3,207.1v7c0,1.5,0.8,2.3,2.4,2.3c1,0,1.8-0.3,2.5-0.7v5.1c-1.1,0.6-2.2,0.8-3.7,0.8
			c-4.7,0-6.7-2.7-6.7-6.7v-7.9H217v-5h2.9v-4.7h5.5v4.7h4.9v5H225.3z"/>
		<path class="st1" d="M252.2,213.5h-14.3c0.7,2.1,2.5,3.5,4.9,3.5c2.2,0,3.9-1,4.8-2.1l3.7,3.2c-2,2.3-5.1,3.7-8.6,3.7
			c-6.1,0-10.7-4.4-10.7-10.1c0-5.6,4.4-9.9,10.2-9.9c5.7,0,10.1,4.3,10.1,10.1C252.3,212.3,252.2,213,252.2,213.5z M237.9,209.9
			h8.6c-0.6-2.1-2.3-3.5-4.3-3.5S238.4,207.8,237.9,209.9z"/>
		<path class="st1" d="M254,218.8l2.5-3.5c1.5,1.2,3.3,2.1,5.5,2.1c1.8,0,3-0.5,3-1.5c0-1.1-1.5-1.5-3.4-1.9c-3-0.7-7.1-1.6-7.1-6.1
			c0-4.1,3.6-6.2,8-6.2c3.4,0,5.8,1.2,7.6,2.5l-2.6,3.5c-1.4-1-3-1.7-4.9-1.7c-1.5,0-2.7,0.4-2.7,1.4c0,1.1,1.5,1.4,3.4,1.8
			c3,0.6,7.1,1.6,7.1,6c0,4.2-3.7,6.4-8.3,6.4C258.5,221.7,255.8,220.4,254,218.8z"/>
	</g>
	<g>
		<path class="st2" d="M176.5,69.3h-53c-5.8,0-10.5,4.7-10.5,10.5v79.8c0,5,4.1,9.1,9.1,9.1c8.9,0,17.8,0.1,26.7,0.1
			c1.9,0,3.4-1.5,3.4-3.4v-4.6c0-0.5,0.3-1,0.8-1.3c1.3-0.6,2.4-1.5,3.1-2.7c0.6-0.9,0-2.2-1.2-2.2H145c-1.1,0-1.8,1.2-1.2,2.2
			c0.8,1.2,1.9,2.1,3.1,2.6c0.5,0.2,0.8,0.7,0.8,1.3v2.2c0,0.8-0.6,1.4-1.4,1.4H122c-2.6,0-4.8-2.2-4.8-4.8V79.8
			c0-3.4,2.8-6.2,6.2-6.2h53c3.4,0,6.2,2.8,6.2,6.2v67.8c0,0.8,0.6,1.4,1.4,1.4h1.5c0.8,0,1.4-0.6,1.4-1.4V79.8
			C187,74,182.3,69.3,176.5,69.3z"/>
		<path class="st2" d="M138.1,144.9v5c0,1.2,1,2.2,2.2,2.2h19.1c1.2,0,2.2-1,2.2-2.2v-5l0,0H138.1z"/>
		<path class="st2" d="M129.8,92.3l-3.9-3.9c-0.5-0.5-1.3-0.5-1.8,0s-0.5,1.3,0,1.8l3.9,3.9c0.3,0.3,0.6,0.4,0.9,0.4
			C130,94.5,130.6,93.1,129.8,92.3z"/>
		<path class="st2" d="M151.4,84.7V79c0-0.6-0.4-1.1-0.9-1.3c-0.9-0.3-1.8,0.4-1.8,1.3v5.7c0,0.6,0.4,1.1,0.9,1.3
			C150.6,86.3,151.4,85.6,151.4,84.7z"/>
		<path class="st2" d="M174.1,88.4l-3.9,3.9c-0.5,0.5-0.5,1.3,0,1.8s1.3,0.5,1.8,0l3.9-3.9c0.5-0.5,0.5-1.3,0-1.8
			C175.4,87.9,174.6,87.9,174.1,88.4z"/>
		<path class="st2" d="M149.9,91.3c-12.5,0-22.7,10.1-22.7,22.6c0,5.7,2.1,11.1,6,15.3c3.3,3.6,5,7.9,5,12.7v0.4h23.6V142
			c0-4.8,1.8-9.3,5-12.8c3.8-4.2,5.9-9.6,5.9-15.2C172.6,101.4,162.4,91.3,149.9,91.3z M158.2,123.7c0,0.6-0.5,1.1-1.1,1.1h-15.6
			c-0.6,0-1.1-0.5-1.1-1.1v-1.9c0-0.6,0.5-1.1,1.1-1.1h15.6c0.6,0,1.1,0.5,1.1,1.1V123.7z M166.4,115.4c0,0.9-0.7,1.6-1.6,1.6h-30.3
			c-0.9,0-1.6-0.7-1.6-1.6v-1.1c0-0.9,0.7-1.6,1.6-1.6h30.3c0.9,0,1.6,0.7,1.6,1.6V115.4z M166.4,107.5c0,0.9-0.7,1.6-1.6,1.6h-30.3
			c-0.9,0-1.6-0.7-1.6-1.6v-1.1c0-0.9,0.7-1.6,1.6-1.6h30.3c0.9,0,1.6,0.7,1.6,1.6V107.5z"/>
	</g>
</g>
</svg>
