<?xml version="1.0" encoding="utf-8"?>
<!-- Generator: Adobe Illustrator 24.1.2, SVG Export Plug-In . SVG Version: 6.00 Build 0)  -->
<svg version="1.1" id="Layer_1" xmlns="http://www.w3.org/2000/svg" xmlns:xlink="http://www.w3.org/1999/xlink" x="0px" y="0px"
	 viewBox="0 0 300 300" style="enable-background:new 0 0 300 300;" xml:space="preserve">
<style type="text/css">
	.st0{fill-rule:evenodd;clip-rule:evenodd;fill:#34B781;}
</style>
<g>
	<g>
		<path class="st0" d="M212.8,32.3H87.4c-13.7,0-24.8,11.1-24.8,24.8V246c0,11.8,9.7,21.5,21.5,21.5c21.1,0,42.1,0.2,63.2,0.2
			c4.5,0,8-3.5,8-8v-10.9c0-1.2,0.7-2.4,1.9-3.1c3.1-1.4,5.7-3.5,7.3-6.4c1.4-2.1,0-5.2-2.8-5.2h-23.4c-2.6,0-4.3,2.8-2.8,5.2
			c1.9,2.8,4.5,5,7.3,6.2c1.2,0.5,1.9,1.7,1.9,3.1v5.2c0,1.9-1.4,3.3-3.3,3.3H83.9c-6.2,0-11.4-5.2-11.4-11.4V57.1
			c0-8,6.6-14.7,14.7-14.7h125.4c8,0,14.7,6.6,14.7,14.7v160.4c0,1.9,1.4,3.3,3.3,3.3h3.5c1.9,0,3.3-1.4,3.3-3.3V57.1
			C237.7,43.4,226.6,32.3,212.8,32.3z"/>
		<path class="st0" d="M122,211.2V223c0,2.8,2.4,5.2,5.2,5.2h45.2c2.8,0,5.2-2.4,5.2-5.2v-11.8l0,0H122z"/>
		<path class="st0" d="M102.3,86.7l-9.2-9.2c-1.2-1.2-3.1-1.2-4.3,0c-1.2,1.2-1.2,3.1,0,4.3l9.2,9.2c0.7,0.7,1.4,0.9,2.1,0.9
			C102.8,91.9,104.2,88.6,102.3,86.7z"/>
		<path class="st0" d="M153.4,68.7V55.2c0-1.4-0.9-2.6-2.1-3.1c-2.1-0.7-4.3,0.9-4.3,3.1v13.5c0,1.4,0.9,2.6,2.1,3.1
			C151.5,72.5,153.4,70.8,153.4,68.7z"/>
		<path class="st0" d="M207.1,77.5l-9.2,9.2c-1.2,1.2-1.2,3.1,0,4.3c1.2,1.2,3.1,1.2,4.3,0l9.2-9.2c1.2-1.2,1.2-3.1,0-4.3
			C210.2,76.3,208.3,76.3,207.1,77.5z"/>
		<path class="st0" d="M149.9,84.3c-29.6,0-53.7,23.9-53.7,53.5c0,13.5,5,26.3,14.2,36.2c7.8,8.5,11.8,18.7,11.8,30.1v0.9H178v-0.7
			c0-11.4,4.3-22,11.8-30.3c9-9.9,14-22.7,14-36C203.6,108.2,179.5,84.3,149.9,84.3z M169.5,161c0,1.4-1.2,2.6-2.6,2.6H130
			c-1.4,0-2.6-1.2-2.6-2.6v-4.5c0-1.4,1.2-2.6,2.6-2.6h36.9c1.4,0,2.6,1.2,2.6,2.6V161z M188.9,141.4c0,2.1-1.7,3.8-3.8,3.8h-71.7
			c-2.1,0-3.8-1.7-3.8-3.8v-2.6c0-2.1,1.7-3.8,3.8-3.8h71.7c2.1,0,3.8,1.7,3.8,3.8V141.4z M188.9,122.7c0,2.1-1.7,3.8-3.8,3.8h-71.7
			c-2.1,0-3.8-1.7-3.8-3.8v-2.6c0-2.1,1.7-3.8,3.8-3.8h71.7c2.1,0,3.8,1.7,3.8,3.8V122.7z"/>
	</g>
</g>
</svg>
