<?xml version="1.0" encoding="utf-8"?>
<!-- Generator: Adobe Illustrator 24.1.2, SVG Export Plug-In . SVG Version: 6.00 Build 0)  -->
<svg version="1.1" id="Layer_1" xmlns="http://www.w3.org/2000/svg" xmlns:xlink="http://www.w3.org/1999/xlink" x="0px" y="0px"
	 viewBox="0 0 300 92" style="enable-background:new 0 0 300 92;" xml:space="preserve">
<style type="text/css">
	.st0{enable-background:new    ;}
	.st1{fill:#34B781;}
	.st2{fill-rule:evenodd;clip-rule:evenodd;fill:#34B781;}
</style>
<g>
	<g class="st0">
		<path class="st1" d="M92.3,49.5c0,3.5-2.7,6-6.3,6H74.5V33.4h10.7c3.3,0,5.9,2.4,5.9,5.7c0,2-1,3.8-2.4,4.7
			C90.8,44.6,92.3,46.9,92.3,49.5z M79.4,37.9V42H84c1.1,0,2.1-0.9,2.1-2.1c0-1.2-0.9-2.1-2.1-2.1H79.4z M87.2,48.7
			c0-1.4-1-2.4-2.4-2.4h-5.4v4.8h5.4C86.1,51.1,87.2,50,87.2,48.7z"/>
		<path class="st1" d="M104.6,38.9v4.8h-0.7c-2.9,0-4.4,1.6-4.4,4.2v7.7h-4.7V39.1h4.7V41c1.2-1.4,2.7-2.1,4.4-2.1H104.6z"/>
		<path class="st1" d="M106.3,34.2c0-1.6,1.3-2.9,2.9-2.9c1.7,0,2.9,1.2,2.9,2.9c0,1.7-1.3,2.9-2.9,2.9
			C107.6,37.1,106.3,35.8,106.3,34.2z M106.9,39.1h4.7v16.4h-4.7V39.1z"/>
		<path class="st1" d="M131.6,48.9h-12.2c0.6,1.8,2.2,3,4.2,3c1.9,0,3.3-0.9,4.1-1.8l3.2,2.7c-1.7,2-4.4,3.2-7.4,3.2
			c-5.2,0-9.1-3.7-9.1-8.7c0-4.8,3.8-8.5,8.8-8.5c4.9,0,8.6,3.7,8.6,8.7C131.7,47.9,131.7,48.5,131.6,48.9z M119.4,45.8h7.4
			c-0.5-1.8-1.9-3-3.7-3S119.8,44,119.4,45.8z"/>
		<path class="st1" d="M141.1,32c1.2,0,2.2,0.2,3.1,0.7v4.2c-0.6-0.4-1.3-0.6-2.1-0.6c-1.4,0-2.2,0.7-2.2,2v0.9h3.9v4.3H140v12.1
			h-4.7V43.4h-2.5v-4.3h2.5v-1.2C135.3,34.4,137.1,32,141.1,32z M146.1,34.2c0-1.6,1.3-2.9,2.9-2.9c1.7,0,2.9,1.2,2.9,2.9
			c0,1.7-1.3,2.9-2.9,2.9C147.4,37.1,146.1,35.8,146.1,34.2z M146.6,39.1h4.7v16.4h-4.7V39.1z"/>
		<path class="st1" d="M171,45v10.6h-4.7v-9c0-2-1.3-3.3-3.2-3.3c-2,0-3.4,1.3-3.4,3.3v8.9h-4.7V39.1h4.7v1.6c1.3-1.3,3-2,5-2
			C168.5,38.8,171,41.2,171,45z"/>
		<path class="st1" d="M191.2,60.4l-4.8,1.3c-0.1-1.1-1-1.8-2.3-1.8h-5.1c-3.2,0-5.3-1.8-5.3-4.6c0-1.7,0.9-3.4,2.3-4.2
			c-1.4-1.3-2.2-3.1-2.2-5.1c0-4.2,3.3-7.2,7.8-7.2c1.3,0,2.4,0.3,3.4,0.7c0.5-1.8,2.1-2.9,4.4-2.9h1.4v4.3h-1.2
			c-0.8,0-1.4,0.4-1.5,1c0.8,1.2,1.3,2.5,1.3,4.1c0,4.2-3.3,7.2-7.8,7.2c-0.8,0-1.6-0.1-2.4-0.3c-0.5,0.3-0.7,0.8-0.7,1.3
			c0,0.7,0.6,1.2,1.5,1.2h5.1C188.3,55.4,190.6,57.2,191.2,60.4z M178.6,46c0,1.6,1.3,2.8,2.9,2.8c1.7,0,3-1.2,3-2.8
			c0-1.6-1.3-2.8-3-2.8C179.8,43.2,178.6,44.4,178.6,46z"/>
		<path class="st1" d="M212.2,33.4v22.2h-5.1L197.9,42v13.6h-5V33.4h5l9.2,13.6V33.4H212.2z"/>
		<path class="st1" d="M215.2,47.4c0-4.9,3.8-8.6,8.8-8.6c5.1,0,8.8,3.7,8.8,8.6c0,4.9-3.8,8.6-8.8,8.6
			C219,55.9,215.2,52.2,215.2,47.4z M228,47.4c0-2.3-1.7-4.1-4-4.1c-2.3,0-4,1.7-4,4.1c0,2.3,1.7,4.1,4,4.1
			C226.3,51.4,228,49.7,228,47.4z"/>
		<path class="st1" d="M241.2,43.4v6c0,1.3,0.7,2,2.1,2c0.8,0,1.5-0.3,2.2-0.6v4.4c-1,0.5-1.9,0.7-3.2,0.7c-4,0-5.8-2.3-5.8-5.7
			v-6.8H234v-4.3h2.5v-4.1h4.7v4.1h4.2v4.3H241.2z"/>
		<path class="st1" d="M264.2,48.9H252c0.6,1.8,2.2,3,4.2,3c1.9,0,3.3-0.9,4.1-1.8l3.2,2.7c-1.7,2-4.4,3.2-7.4,3.2
			c-5.2,0-9.1-3.7-9.1-8.7c0-4.8,3.8-8.5,8.8-8.5c4.9,0,8.6,3.7,8.6,8.7C264.3,47.9,264.3,48.5,264.2,48.9z M251.9,45.8h7.4
			c-0.5-1.8-1.9-3-3.7-3S252.4,44,251.9,45.8z"/>
		<path class="st1" d="M265.7,53.5l2.2-3c1.3,1.1,2.8,1.8,4.7,1.8c1.5,0,2.6-0.5,2.6-1.3c0-0.9-1.3-1.3-2.9-1.6
			c-2.6-0.6-6.1-1.4-6.1-5.2c0-3.5,3.1-5.3,6.8-5.3c2.9,0,5,1,6.5,2.2l-2.2,3c-1.2-0.8-2.6-1.4-4.2-1.4c-1.3,0-2.3,0.4-2.3,1.2
			c0,0.9,1.3,1.2,2.9,1.6c2.6,0.5,6,1.4,6,5.2c0,3.6-3.2,5.5-7.1,5.5C269.7,55.9,267.4,54.8,265.7,53.5z"/>
	</g>
	<g>
		<path class="st2" d="M57.9,15.8H25.8c-3.5,0-6.4,2.9-6.4,6.4v48.5c0,3,2.5,5.5,5.5,5.5c5.4,0,10.8,0,16.2,0c1.1,0,2.1-0.9,2.1-2
			v-2.8c0-0.3,0.2-0.6,0.5-0.8c0.8-0.3,1.4-0.9,1.9-1.6c0.4-0.6,0-1.3-0.7-1.3h-6c-0.7,0-1.1,0.8-0.7,1.3c0.5,0.7,1.1,1.3,1.9,1.6
			c0.3,0.1,0.5,0.4,0.5,0.8v1.4c0,0.5-0.4,0.8-0.8,0.8H25c-1.6,0-2.9-1.3-2.9-2.9V22.2c0-2.1,1.7-3.8,3.8-3.8h32.2
			c2.1,0,3.8,1.7,3.8,3.8v41.2c0,0.5,0.4,0.8,0.8,0.8h0.9c0.5,0,0.8-0.4,0.8-0.8V22.2C64.3,18.6,61.5,15.8,57.9,15.8z"/>
		<path class="st2" d="M34.6,61.7v3c0,0.8,0.6,1.4,1.4,1.4h11.6c0.8,0,1.4-0.6,1.4-1.4v-3l0,0C49,61.7,34.6,61.7,34.6,61.7z"/>
		<path class="st2" d="M29.6,29.7l-2.3-2.4c-0.3-0.3-0.8-0.3-1.1,0c-0.3,0.3-0.3,0.8,0,1.1l2.3,2.4c0.2,0.2,0.4,0.2,0.6,0.2
			C29.7,31.1,30.1,30.2,29.6,29.7z"/>
		<path class="st2" d="M42.7,25.1v-3.4c0-0.3-0.2-0.7-0.5-0.8c-0.6-0.2-1.1,0.2-1.1,0.8v3.4c0,0.3,0.2,0.7,0.5,0.8
			C42.2,26.1,42.7,25.7,42.7,25.1z"/>
		<path class="st2" d="M56.4,27.4L54,29.8c-0.3,0.3-0.3,0.8,0,1.1c0.3,0.3,0.8,0.3,1.1,0l2.3-2.4c0.3-0.3,0.3-0.8,0-1.1
			C57.2,27.1,56.8,27.1,56.4,27.4z"/>
		<path class="st2" d="M41.8,29.1c-7.6,0-13.8,6.2-13.8,13.7c0,3.4,1.3,6.7,3.6,9.3c2,2.2,3,4.8,3,7.7V60h14.3v-0.2
			c0-2.9,1.1-5.6,3.1-7.8c2.3-2.5,3.6-5.8,3.6-9.2C55.6,35.3,49.4,29.1,41.8,29.1z M46.8,48.8c0,0.4-0.3,0.7-0.7,0.7h-9.5
			c-0.4,0-0.7-0.3-0.7-0.7v-1.2c0-0.4,0.3-0.7,0.7-0.7h9.5c0.4,0,0.7,0.3,0.7,0.7V48.8z M51.8,43.8c0,0.5-0.4,0.9-0.9,0.9H32.5
			c-0.5,0-0.9-0.4-0.9-0.9v-0.6c0-0.5,0.4-0.9,0.9-0.9h18.4c0.5,0,0.9,0.4,0.9,0.9C51.8,43.2,51.8,43.8,51.8,43.8z M51.8,39
			c0,0.5-0.4,0.9-0.9,0.9H32.5c-0.5,0-0.9-0.4-0.9-0.9v-0.6c0-0.5,0.4-0.9,0.9-0.9h18.4c0.5,0,0.9,0.4,0.9,0.9
			C51.8,38.4,51.8,39,51.8,39z"/>
	</g>
</g>
</svg>
